<svg width="84" height="16" viewBox="0 0 84 16" fill="none" xmlns="http://www.w3.org/2000/svg">
<path d="M23.6528 2.36519C22.3839 0.452659 20.2085 0.0787635 18.7378 0.0447731C17.4439 0.0153146 11.8287 0.00851654 8.5588 0.00625051C2.11874 0.00171844 5.79878 0.00398448 0 0.00398448V3.08126C6.88647 3.08126 15.06 3.06539 18.6381 3.11978C19.2771 3.12884 19.9094 3.19456 20.4124 3.6387C20.8815 4.05338 21.0446 4.70827 20.8362 5.27477C20.4985 6.19252 19.5649 6.42139 18.6381 6.43498C17.2196 6.45764 13.3243 6.46444 10.4147 6.46897C3.28348 6.47804 6.37208 6.47351 0 6.47351V9.54171C6.88194 9.54171 15.0736 9.52812 18.6381 9.58024C19.7507 9.5961 20.9245 9.98359 20.9245 11.2231C20.9245 12.4626 19.7507 12.8682 18.6381 12.8841C15.0804 12.9362 6.88647 12.9226 0 12.9226V15.9954C6.90686 15.9954 15.9461 16.0203 18.7356 15.9546C20.2085 15.9206 22.3839 15.5467 23.6506 13.6342C24.8402 11.8395 24.5502 9.49866 22.9866 7.99855C24.5525 6.49843 24.8425 4.16215 23.6528 2.36519Z" fill="white"/>
<path d="M79.869 1.85314C77.7661 0.346227 75.4842 0.130954 73.6352 0.0878997C71.811 0.0448451 69.0623 0.0267168 66.6309 0.0153866C60.7007 -0.00727368 64.2674 0.00179045 58.6182 0.00179045V3.08813C64.6299 3.08813 68.8448 3.03827 73.4856 3.1697C74.8498 3.20823 76.3113 3.35099 77.6279 4.26646C78.8742 5.13209 79.6152 6.5121 79.6152 8.00088C79.6152 9.48967 78.8946 10.8719 77.6483 11.7376C76.3317 12.6508 74.8701 12.7958 73.506 12.8343C68.8652 12.9658 64.6503 12.9159 58.6386 12.9159L58.6182 15.9977C64.6639 15.9977 69.0102 16.0204 73.6352 15.9139C75.4865 15.8708 77.7684 15.6578 79.869 14.1486C81.8631 12.7188 83.0709 10.4709 83.0709 8.00088C83.0686 5.53091 81.8631 3.283 79.869 1.85314Z" fill="white"/>
<path d="M33.7706 6.91102C32.1595 6.87929 31.6473 6.35357 31.636 4.74922C31.6247 3.26724 31.6315 1.5088 31.6315 0.00415039H28.0806C28.0806 1.52466 28.0511 4.60646 28.1101 6.09524C28.2256 8.98897 29.1751 9.88858 32.1323 9.99055C34.1808 10.0608 35.81 10.0359 38.6426 10.0336V6.93594C36.3743 6.93594 35.4497 6.94047 33.7706 6.91102Z" fill="white"/>
<path d="M51.3713 4.80361C51.36 6.3649 50.8524 6.87703 49.2367 6.90875C48.4663 6.92461 46.4427 6.93141 44.7772 6.93368V6.93594C44.7726 6.93594 44.7658 6.93594 44.7613 6.93594C43.0595 6.93594 41.2467 6.93368 40.1816 6.93368V15.9955H44.3557V10.0336C44.4826 10.0336 44.6208 10.0336 44.7613 10.0336C44.7658 10.0336 44.7726 10.0336 44.7772 10.0336V10.0381C46.948 10.0359 49.6627 10.0291 50.687 9.99735C53.8231 9.90218 54.7794 9.01616 54.895 6.09525C54.9108 5.70549 54.9199 5.21149 54.9244 4.66991V0.00415039H51.3736C51.3758 1.54732 51.3826 3.28083 51.3713 4.80361Z" fill="white"/>
</svg>
